<svg xmlns="http://www.w3.org/2000/svg" xml:space="preserve" width="190.609mm" height="192.099mm" version="1.1" style="shape-rendering:geometricPrecision; text-rendering:geometricPrecision; image-rendering:optimizeQuality; fill-rule:evenodd; clip-rule:evenodd"
viewBox="0 0 3480 3507"
 xmlns:xlink="http://www.w3.org/1999/xlink">
 <defs>
  <style type="text/css">
   <![CDATA[
    .fil0 {fill:#4F80D8;fill-rule:nonzero}
   ]]>
  </style>
 </defs>
 <g id="Слой_x0020_1">
  <metadata id="CorelCorpID_0Corel-Layer"/>
  <path class="fil0" d="M27 0l160 0 228 0c15,0 27,12 27,27 0,16 -12,28 -27,28l-228 0 -132 0 0 833c0,218 89,416 233,560 144,144 342,233 560,233 218,0 416,-89 560,-233 144,-144 233,-342 233,-560l0 -833 -132 0 -228 0c-15,0 -27,-12 -27,-28 0,-15 12,-27 27,-27l228 0 160 0c15,0 27,12 27,27l0 861c0,233 -95,445 -249,599 -148,148 -350,242 -574,248l0 28 0 1141c0,151 62,288 161,387 99,99 236,161 387,161 151,0 288,-62 387,-161 100,-99 161,-236 161,-387l0 -584c5,-72 14,-147 55,-251 30,-65 72,-125 122,-175 110,-109 260,-177 426,-177 166,0 317,68 426,177 109,109 177,260 177,426l0 524c81,6 153,42 207,96 61,60 98,143 98,235 0,91 -37,174 -98,234 -60,60 -143,98 -234,98 -92,0 -175,-38 -235,-98 -60,-60 -97,-143 -97,-234 0,-92 37,-175 97,-235 54,-54 127,-90 207,-96l0 -524c0,-151 -61,-288 -161,-387 -99,-100 -236,-161 -387,-161 -151,0 -288,61 -387,161 -99,99 -161,236 -161,387l0 584c-5,72 -13,147 -55,250 -30,66 -72,125 -122,176 -109,109 -260,177 -426,177 -166,0 -316,-68 -426,-177 -109,-109 -177,-260 -177,-426l0 -1169c-221,-8 -422,-101 -569,-248 -154,-154 -249,-366 -249,-599l0 -861c0,-15 12,-27 27,-27zm3317 2978c-50,-50 -120,-81 -196,-81 -77,0 -146,31 -196,81 -51,51 -82,120 -82,197 0,76 31,145 82,196 50,50 119,81 196,81 76,0 146,-31 196,-81 50,-51 81,-120 81,-196 0,-77 -31,-146 -81,-197z"/>
 </g>
</svg>
