<svg xmlns="http://www.w3.org/2000/svg" xml:space="preserve" width="238.652mm" height="190.204mm" version="1.1" style="shape-rendering:geometricPrecision; text-rendering:geometricPrecision; image-rendering:optimizeQuality; fill-rule:evenodd; clip-rule:evenodd"
viewBox="0 0 326033 259847"
 xmlns:xlink="http://www.w3.org/1999/xlink">
 <defs>
  <style type="text/css">
   <![CDATA[
    .fil0 {fill:#4F80D8;fill-rule:nonzero}
   ]]>
  </style>
 </defs>
 <g id="Слой_x0020_1">
  <metadata id="CorelCorpID_0Corel-Layer"/>
  <path class="fil0" d="M660 92530c-822,-757 -883,-2033 -143,-2865 61,-95 130,-187 207,-274l3982 -4451c58251,-65151 99219,-110950 158413,-68498 59193,-42452 100161,3347 158413,68498l3981 4451c751,840 679,2130 -160,2882 -79,70 -162,134 -249,190 -31,31 -63,62 -96,91 -52161,46318 -108133,69342 -163570,69342 -55672,0 -110730,-23213 -160778,-69366zm107106 151873c-924,-650 -1147,-1926 -497,-2850 650,-924 1926,-1146 2850,-496 14120,9954 33972,14691 53555,14691 20254,0 40128,-5063 52981,-14659 906,-676 2190,-490 2866,416 676,907 490,2190 -416,2866 -13569,10130 -34353,15476 -55431,15476 -20352,0 -41065,-4980 -55908,-15444zm17250 -25560c-849,-747 -931,-2041 -184,-2890 747,-849 2041,-931 2889,-184 9455,8336 22752,12304 35869,12304 13567,0 26874,-4236 35470,-12264 827,-769 2121,-723 2890,104 769,827 723,2121 -104,2890 -9371,8750 -23715,13368 -38256,13368 -14041,0 -28332,-4297 -38574,-13328zm9313 -26534c-858,-734 -958,-2024 -224,-2882 734,-857 2024,-958 2882,-224 6986,5986 16833,8836 26558,8836 10053,0 19898,-3039 26242,-8796 836,-760 2130,-699 2890,136 760,836 699,2130 -136,2890 -7118,6459 -17989,9868 -28996,9868 -10622,0 -21445,-3169 -29216,-9828zm30016 -171717c-103,76 -211,143 -324,198l-4 2 -25 12 -7 3c-26,13 -53,25 -80,36l-6 2c-214,89 -439,139 -664,151l-3 1 -44 1 -10 1 -36 1 -5 0 -36 0 -6 0 -36 -1 -10 -1 -44 -1 -3 -1c-225,-12 -450,-62 -664,-151l-6 -2c-27,-11 -54,-23 -80,-36l-7 -3 -24 -12 -5 -2c-113,-55 -221,-122 -324,-198 -56855,-41742 -96957,3109 -154145,67069l-2856 3194c48870,44539 102448,66943 156547,66943 54014,0 108619,-22327 159649,-67232l-2597 -2905c-57188,-63960 -97290,-108811 -154145,-67069zm-68464 65086c-815,-48 -1557,-586 -1825,-1410 -72,-221 -104,-446 -100,-667 -4,-220 28,-445 100,-666 268,-824 1010,-1362 1825,-1410 20892,-6741 43804,-10132 66940,-10132 23047,0 46341,3364 68101,10130 835,40 1594,592 1857,1436 66,214 96,430 92,642 4,213 -26,429 -92,643 -263,844 -1022,1396 -1857,1435 -21760,6766 -45054,10130 -68101,10130 -23136,0 -46048,-3390 -66940,-10131zm127602 -2077c-19543,-5415 -40193,-8109 -60662,-8109 -20542,0 -40882,2713 -59715,8109 18833,5397 39173,8110 59715,8110 20469,0 41119,-2694 60662,-8110z"/>
 </g>
</svg>
