<svg xmlns="http://www.w3.org/2000/svg" xml:space="preserve" width="200.044mm" height="192.887mm" version="1.1" style="shape-rendering:geometricPrecision; text-rendering:geometricPrecision; image-rendering:optimizeQuality; fill-rule:evenodd; clip-rule:evenodd"
viewBox="0 0 6832 6587"
 xmlns:xlink="http://www.w3.org/1999/xlink">
 <defs>
  <style type="text/css">
   <![CDATA[
    .fil0 {fill:#4F80D8;fill-rule:nonzero}
   ]]>
  </style>
 </defs>
 <g id="Слой_x0020_1">
  <metadata id="CorelCorpID_0Corel-Layer"/>
  <path class="fil0" d="M2311 0l2210 0c184,0 352,75 474,197 121,122 197,289 197,474l0 697 669 0c267,0 510,109 686,285 176,176 285,419 285,686l0 3278c0,267 -109,509 -285,685 -176,176 -419,285 -686,285l-4890 0c-267,0 -510,-109 -686,-285 -176,-176 -285,-418 -285,-685l0 -3278c0,-267 109,-510 285,-686 176,-176 419,-285 686,-285l669 0 0 -697c0,-185 76,-352 197,-474 122,-122 290,-197 474,-197zm2778 1368l0 -697c0,-156 -64,-298 -167,-401 -103,-104 -245,-168 -401,-168l-2210 0c-156,0 -298,64 -401,168 -103,103 -167,245 -167,401l0 697 3346 0zm772 102l-4890 0c-239,0 -456,98 -613,255 -158,158 -256,375 -256,614l0 3278c0,238 98,455 256,613 157,157 374,255 613,255l4890 0c239,0 456,-98 613,-255 158,-158 255,-375 255,-613l0 -3278c0,-239 -97,-456 -255,-614 -157,-157 -374,-255 -613,-255zm-3700 1962l723 0 0 -723c0,-62 25,-118 66,-158 40,-41 96,-66 158,-66l616 0c61,0 117,25 158,66 41,40 66,96 66,158l0 723 723 0c61,0 117,25 158,65 40,41 66,97 66,159l0 615c0,62 -26,118 -66,159 -41,40 -97,65 -158,65l-723 0 0 723c0,62 -25,118 -66,158 -41,41 -97,66 -158,66l-616 0c-62,0 -118,-25 -158,-66 -41,-40 -66,-96 -66,-158l0 -723 -723 0c-61,0 -117,-25 -158,-65 -40,-41 -66,-97 -66,-159l0 -615c0,-62 26,-118 66,-159 41,-40 97,-65 158,-65zm774 102l-774 0c-33,0 -63,14 -85,36 -23,22 -36,52 -36,86l0 615c0,34 13,64 36,86 22,22 52,36 85,36l826 0 0 825c0,34 13,64 35,86 22,22 53,36 86,36l616 0c33,0 64,-14 86,-36 22,-22 35,-52 35,-86l0 -825 826 0c33,0 63,-14 85,-36 22,-22 36,-52 36,-86l0 -615c0,-34 -14,-64 -36,-86 -22,-22 -52,-36 -85,-36l-826 0 0 -825c0,-34 -13,-64 -35,-86 -22,-22 -53,-36 -86,-36l-616 0c-33,0 -64,14 -86,36 -22,22 -35,52 -35,86l0 825 -52 0z"/>
 </g>
</svg>
