<svg xmlns="http://www.w3.org/2000/svg" xml:space="preserve" width="142.2mm" height="191.383mm" version="1.1" style="shape-rendering:geometricPrecision; text-rendering:geometricPrecision; image-rendering:optimizeQuality; fill-rule:evenodd; clip-rule:evenodd"
viewBox="0 0 3229 4345"
 xmlns:xlink="http://www.w3.org/1999/xlink">
 <defs>
  <style type="text/css">
   <![CDATA[
    .fil0 {fill:#4F80D8;fill-rule:nonzero}
   ]]>
  </style>
 </defs>
 <g id="Слой_x0020_1">
  <metadata id="CorelCorpID_0Corel-Layer"/>
  <path class="fil0" d="M2141 3365c-49,183 -219,486 -469,706 -180,158 -401,274 -649,274 -298,0 -555,-100 -737,-277 -180,-173 -286,-419 -286,-712l0 -1742c0,-445 181,-849 473,-1141 292,-292 696,-473 1141,-473 446,0 850,181 1142,473 292,292 473,696 473,1141 0,195 -35,382 -98,556 -66,179 -163,344 -284,487 -187,220 -338,326 -455,408 -126,89 -210,148 -251,300zm400 -1785c-2,-18 12,-35 31,-36 18,-2 35,12 36,30 18,194 -2,351 -55,476 -54,127 -140,221 -254,287 -17,10 -37,4 -47,-12 -9,-16 -4,-37 12,-46 102,-60 179,-143 226,-256 49,-115 68,-260 51,-443zm-34 -406c10,16 6,37 -10,47 -16,11 -37,6 -47,-9 -196,-299 -434,-460 -671,-514 -172,-40 -343,-24 -500,35 -157,60 -298,162 -408,297 -163,198 -258,465 -235,763 307,105 489,253 549,442 60,194 -9,427 -207,698 -11,16 -33,19 -48,8 -15,-11 -18,-32 -7,-47 185,-254 251,-467 197,-638 -54,-172 -229,-307 -525,-406 -13,-3 -23,-15 -25,-29 -31,-325 70,-618 248,-834 118,-144 269,-254 437,-317 169,-64 354,-81 539,-38 253,58 506,228 713,542zm-880 2846c239,-211 402,-499 449,-673 47,-176 139,-240 277,-337 114,-80 261,-183 442,-397 116,-137 209,-295 272,-467 60,-166 94,-345 94,-532 0,-427 -174,-813 -453,-1093 -280,-280 -667,-453 -1094,-453 -427,0 -813,173 -1093,453 -280,280 -453,666 -453,1093l0 1742c0,274 99,503 265,664 169,163 410,257 690,257 229,0 436,-109 604,-257z"/>
 </g>
</svg>
