<svg version="1.1" id="Слой_1" xmlns="http://www.w3.org/2000/svg" xmlns:xlink="http://www.w3.org/1999/xlink" x="0px" y="0px"
	 viewBox="0 0 596.1 116.1" enable-background="new 0 0 596.1 116.1" xml:space="preserve">
<g>
	<g>
		<path fill="#00477C" d="M544.9,0H52.6C24.4,0,1.4,23,1.4,51.2v13.8c0,28.2,23,51.2,51.2,51.2h492.3c28.2,0,51.2-23,51.2-51.2V51.2
			C596.1,23,573.2,0,544.9,0z M587.6,64.9c0,23.5-19.1,42.7-42.7,42.7h-38.7V8.5h38.7c23.5,0,42.7,19.1,42.7,42.7V64.9z"/>
	</g>
	<path opacity="0.17" fill="#201600" d="M596.1,58v6.9c0,28.2-23,51.2-51.2,51.2H52.6c-28.2,0-51.2-23-51.2-51.2V58h504.9v49.6h38.7
		c23.5,0,42.7-19.1,42.7-42.7V58H596.1z"/>
	<path fill="#FFFFFF" d="M53.8,38.1c6.6,0,10.6,3.9,10.6,10.2c0,3.4-1.5,5.9-4,7.5c3.1,1.5,5,4.3,5,8.3c0,6.8-4.4,10.6-11.4,10.6
		H38.8V38.1H53.8z M52.1,53.1c2.7,0,4.1-1.8,4.1-4.6c0-2.9-1.4-4.6-4.1-4.6h-5.2v9.2H52.1z M52.4,68.7c3.1,0,4.8-1.6,4.8-4.9
		c0-3.4-1.6-4.9-4.8-4.9h-5.5v9.8H52.4z M79,74.2c0,0-1.5,0.5-4.1,0.5c-2.7,0-4.1-0.5-4.1-0.5V38.1h14.1c7.4,0,11.9,4.4,11.9,11.7
		c0,7.2-4.6,11.6-11.9,11.6H79V74.2z M83.7,55.1c3,0,4.7-1.9,4.7-5.3c0-3.5-1.7-5.3-4.7-5.3H79v10.7H83.7z M112.6,38.1
		c3.4,0,5.1,0.5,5.1,0.5l11.6,35.7c0,0-1.4,0.5-4.3,0.5c-2.6,0-3.9-0.5-3.9-0.5l-2.4-7.4H106l-2.4,7.4c0,0-1.5,0.5-4,0.5
		c-2.4,0-3.8-0.5-3.8-0.5l11.6-35.7C107.5,38.5,109.4,38.1,112.6,38.1z M112.3,45.7c0,0-0.4,2.7-1.4,5.9l-3,9.2h9l-2.9-9.2
		c-1.1-3.3-1.5-5.9-1.5-5.9H112.3z M147.9,38.5c0,0,1.6-0.5,4.1-0.5c2.5,0,4,0.5,4,0.5v35.7c0,0-1.5,0.5-4,0.5
		c-2.7,0-4.1-0.5-4.1-0.5V60.4c-1.5,0.6-3.9,1.2-7.4,1.2c-7.4,0-11.7-3.1-11.7-11.8V38.5c0,0,1.5-0.5,4-0.5c2.5,0,4.1,0.5,4.1,0.5
		v11.2c0,4.1,1.8,5.4,5.3,5.4c2.5,0,4.4-0.7,5.7-1.2V38.5z M185.2,38.1c0.3,0.8,0.5,1.8,0.5,2.9c0,1.2-0.2,2.4-0.5,3.3h-14.1V53
		h11.6c0.3,0.9,0.5,1.8,0.5,3c0,1.3-0.2,2.2-0.5,3.1h-11.6v9.3h14.6c0.3,0.8,0.5,1.9,0.5,3c0,1.1-0.2,2.2-0.5,3.1H163V38.1H185.2z
		 M214.5,38.1c0,0,0.6,1.1,0.6,3.3c0,2-0.6,3.3-0.6,3.3h-15v7.5h7c7.4,0,11.7,4.5,11.7,11.2c0,6.8-4.3,11.3-11.7,11.3h-15.1V38.1
		H214.5z M199.5,68.7h5.4c3.3,0,5-1.9,5-5.3c0-3.4-1.7-5.3-5-5.3h-5.4V68.7z M242.6,38.5c0,0,1.6-0.5,4.1-0.5c2.5,0,4.1,0.5,4.1,0.5
		v35.7c0,0-1.5,0.5-4,0.5c-2.7,0-4.1-0.5-4.1-0.5v-15h-11.4v15c0,0-1.6,0.5-4.1,0.5c-2.7,0-4.1-0.5-4.1-0.5V38.5c0,0,1.5-0.5,4-0.5
		c2.5,0,4.1,0.5,4.1,0.5v14.1h11.4V38.5z M261.7,38.1c2.6,0,4.1,0.5,4.1,0.5v13.4h6.7c7.4,0,11.9,4.3,11.9,11.3
		c0,7.1-4.6,11.4-11.9,11.4h-14.8V38.5C257.7,38.5,259,38.1,261.7,38.1z M265.8,68.3h5.5c3,0,4.7-1.7,4.7-5c0-3.3-1.7-5-4.7-5h-5.5
		V68.3z M292.1,38.1c2.5,0,4.1,0.5,4.1,0.5v35.7c0,0-1.6,0.5-4.1,0.5c-2.7,0-4.1-0.5-4.1-0.5V38.5C288,38.5,289.6,38.1,292.1,38.1z
		 M326.7,38.1c3.2,0,4.7,0.5,4.7,0.5v35.7c0,0-1.5,0.5-4,0.5c-2.7,0-4.1-0.5-4.1-0.5V62.3c0-8.8,0.8-14.2,0.8-14.2h-0.3
		c0,0-1.1,3.9-4.7,11.9l-6.3,14.2c-0.1,0-1.7,0.5-4.9,0.5c-3.5,0-4.8-0.5-4.8-0.5V38.5c0,0,1.5-0.5,4-0.5c2.5,0,4.1,0.5,4.2,0.5
		v11.8c0,8.7-0.8,14.7-0.8,14.7h0.3c0.8-2.9,2.6-7.4,4.9-12.4l6.3-14.1C322,38.5,323.5,38.1,326.7,38.1z M323.4,26.7
		c1.5,0.7,2.9,2.4,3.4,4.3c0,0-3,3.9-9.5,3.9c-6.4,0-9.5-3.9-9.5-3.9c0.5-1.8,1.8-3.6,3.4-4.3c0,0,2.3,1.9,6.1,1.9
		C321.1,28.6,323.4,26.7,323.4,26.7z M362.4,37.5c9.3,0,15.3,5.7,15.3,18.9c0,13.2-5.9,18.9-15.3,18.9c-9.5,0-15.4-5.7-15.4-18.9
		C347,43.3,353,37.5,362.4,37.5z M362.4,43.8c-4.2,0-6.8,2.4-6.8,12.5c0,10.1,2.6,12.5,6.8,12.5c4.2,0,6.8-2.4,6.8-12.5
		C369.2,46.2,366.6,43.8,362.4,43.8z M396.5,37.8c0,0,1.4-0.5,4-0.5c2.6,0,4.1,0.5,4.1,0.5v3.1c9,0,15.2,3.8,15.2,14.6
		c0,10.9-6.2,14.6-15.2,14.6v4.1c0,0-1.5,0.5-4.1,0.5c-2.7,0-4.1-0.5-4.1-0.5v-4.1c-9,0-15.2-3.7-15.2-14.6
		c0-10.9,6.2-14.6,15.2-14.6V37.8z M396.7,46.8c-4.2,0-7.3,1.7-7.3,8.7c0,7.1,3.1,8.7,7.3,8.7V46.8z M404.4,64.2
		c4.1,0,7.3-1.7,7.3-8.7c0-7.1-3.1-8.7-7.3-8.7V64.2z M448.3,38.1c3.2,0,4.7,0.5,4.7,0.5v35.7c0,0-1.5,0.5-4,0.5
		c-2.7,0-4.1-0.5-4.1-0.5V62.3c0-8.8,0.8-14.2,0.8-14.2h-0.3c0,0-1.1,3.9-4.7,11.9l-6.3,14.2c-0.1,0-1.7,0.5-4.9,0.5
		c-3.5,0-4.8-0.5-4.8-0.5V38.5c0,0,1.5-0.5,4-0.5c2.5,0,4.1,0.5,4.2,0.5v11.8c0,8.7-0.8,14.7-0.8,14.7h0.3c0.8-2.9,2.6-7.4,4.9-12.4
		l6.3-14.1C443.7,38.5,445.2,38.1,448.3,38.1z M474.6,37.5c6.1,0,9.3,2,9.3,2c0.1,2.3-0.9,4.2-2.3,5.6c0,0-2.7-1-5.9-1
		c-5.2,0-8.5,2.7-8.5,12.4c0,9.7,3.3,12.2,8.5,12.2c3.5,0,6.4-1.1,6.4-1.1c1.5,1.4,2.4,3.6,2.4,5.7c0,0-3.4,2-9.9,2
		c-10.4,0-16-6.6-16-18.9C458.6,44.1,464.3,37.5,474.6,37.5z"/>
	<path fill="#EA3B36" d="M525.6,61.2c0,0-0.7-2-0.7-5.2s0.7-5.2,0.7-5.2h12.7V38c0,0,2-0.7,5.2-0.7s5.2,0.7,5.2,0.7v12.8h12.8
		c0,0,0.7,2,0.7,5.2s-0.7,5.2-0.7,5.2h-12.8v12.7c0,0-2,0.8-5.2,0.8s-5.2-0.8-5.2-0.8V61.2H525.6z"/>
</g>
</svg>
